<mxfile host="app.diagrams.net" agent="Mozilla/5.0 (Windows NT 10.0; Win64; x64) AppleWebKit/537.36 (KHTML, like Gecko) Chrome/138.0.0.0 Safari/537.36" version="27.2.0">
  <diagram name="第 1 页" id="-nMJPA9WsmWQDxrl3pQ_">
    <mxGraphModel dx="1042" dy="692" grid="1" gridSize="10" guides="1" tooltips="1" connect="1" arrows="1" fold="1" page="1" pageScale="1" pageWidth="827" pageHeight="1169" math="0" shadow="0">
      <root>
        <mxCell id="0" />
        <mxCell id="1" parent="0" />
        <mxCell id="J8LCAEnsq7eVZJ1q0n39-1" value="" style="rounded=0;whiteSpace=wrap;html=1;dashed=1;" parent="1" vertex="1">
          <mxGeometry x="223" y="116" width="465" height="664" as="geometry" />
        </mxCell>
        <mxCell id="J8LCAEnsq7eVZJ1q0n39-2" value="&lt;font size=&quot;1&quot; color=&quot;#000000&quot;&gt;&lt;span style=&quot;font-size: 19px;&quot;&gt;教学环节&lt;/span&gt;&lt;/font&gt;" style="rounded=1;whiteSpace=wrap;html=1;fillColor=#36b0ec;fontColor=#ffffff;strokeColor=#000000;" parent="1" vertex="1">
          <mxGeometry x="140" y="71" width="80" height="40" as="geometry" />
        </mxCell>
        <mxCell id="J8LCAEnsq7eVZJ1q0n39-3" value="&lt;font size=&quot;1&quot; color=&quot;#000000&quot;&gt;&lt;span style=&quot;font-size: 19px;&quot;&gt;学生活动&lt;/span&gt;&lt;/font&gt;" style="rounded=1;whiteSpace=wrap;html=1;fillColor=#36b0ec;fontColor=#ffffff;strokeColor=#000000;" parent="1" vertex="1">
          <mxGeometry x="240" y="71" width="200" height="40" as="geometry" />
        </mxCell>
        <mxCell id="J8LCAEnsq7eVZJ1q0n39-4" value="&lt;font size=&quot;1&quot; color=&quot;#000000&quot;&gt;&lt;span style=&quot;font-size: 19px;&quot;&gt;教师活动&lt;/span&gt;&lt;/font&gt;" style="rounded=1;whiteSpace=wrap;html=1;fillColor=#36b0ec;fontColor=#ffffff;strokeColor=#000000;" parent="1" vertex="1">
          <mxGeometry x="480" y="71" width="200" height="40" as="geometry" />
        </mxCell>
        <mxCell id="J8LCAEnsq7eVZJ1q0n39-5" value="&lt;font style=&quot;font-size: 16px;&quot;&gt;&lt;b style=&quot;&quot;&gt;学前&lt;/b&gt;&lt;/font&gt;&lt;div style=&quot;font-size: 16px;&quot;&gt;&lt;font style=&quot;font-size: 16px;&quot;&gt;&lt;b style=&quot;&quot;&gt;准备&lt;/b&gt;&lt;/font&gt;&lt;/div&gt;" style="rounded=0;whiteSpace=wrap;html=1;fillColor=#e57373;strokeColor=none;" parent="1" vertex="1">
          <mxGeometry x="152" y="120" width="56" height="60" as="geometry" />
        </mxCell>
        <mxCell id="J8LCAEnsq7eVZJ1q0n39-6" value="&lt;span style=&quot;font-size: 16px;&quot;&gt;&lt;b&gt;课前&lt;/b&gt;&lt;/span&gt;&lt;div&gt;&lt;span style=&quot;font-size: 16px;&quot;&gt;&lt;b&gt;探究&lt;/b&gt;&lt;/span&gt;&lt;/div&gt;" style="rounded=0;whiteSpace=wrap;html=1;fillColor=#ffb74d;strokeColor=none;" parent="1" vertex="1">
          <mxGeometry x="148" y="220" width="60" height="160" as="geometry" />
        </mxCell>
        <mxCell id="J8LCAEnsq7eVZJ1q0n39-7" value="&lt;span style=&quot;font-size: 16px;&quot;&gt;&lt;b&gt;课中&lt;/b&gt;&lt;/span&gt;&lt;div&gt;&lt;span style=&quot;font-size: 16px;&quot;&gt;&lt;b&gt;教学&lt;/b&gt;&lt;/span&gt;&lt;/div&gt;" style="rounded=0;whiteSpace=wrap;html=1;fillColor=#fff176;strokeColor=none;" parent="1" vertex="1">
          <mxGeometry x="148" y="419" width="60" height="160" as="geometry" />
        </mxCell>
        <mxCell id="J8LCAEnsq7eVZJ1q0n39-8" value="&lt;span style=&quot;font-size: 16px;&quot;&gt;&lt;b&gt;课后&lt;/b&gt;&lt;/span&gt;&lt;div&gt;&lt;span style=&quot;font-size: 16px;&quot;&gt;&lt;b&gt;拓展&lt;/b&gt;&lt;/span&gt;&lt;/div&gt;" style="rounded=0;whiteSpace=wrap;html=1;fillColor=#81c784;strokeColor=none;" parent="1" vertex="1">
          <mxGeometry x="150" y="619" width="60" height="161" as="geometry" />
        </mxCell>
        <mxCell id="J8LCAEnsq7eVZJ1q0n39-9" value="" style="rounded=1;whiteSpace=wrap;html=1;fillColor=#f8cecc;strokeColor=#4D4D4D;dashed=1;" parent="1" vertex="1">
          <mxGeometry x="240" y="121" width="200" height="60" as="geometry" />
        </mxCell>
        <mxCell id="J8LCAEnsq7eVZJ1q0n39-10" value="" style="rounded=1;whiteSpace=wrap;html=1;fillColor=#f8cecc;strokeColor=#4D4D4D;dashed=1;" parent="1" vertex="1">
          <mxGeometry x="480" y="121" width="200" height="60" as="geometry" />
        </mxCell>
        <mxCell id="J8LCAEnsq7eVZJ1q0n39-11" value="填写学习需求调查问卷" style="rounded=0;whiteSpace=wrap;html=1;strokeWidth=1;strokeColor=#4D4D4D;" parent="1" vertex="1">
          <mxGeometry x="279" y="127" width="131" height="20" as="geometry" />
        </mxCell>
        <mxCell id="J8LCAEnsq7eVZJ1q0n39-12" value="完成学习风格测验" style="rounded=0;whiteSpace=wrap;html=1;strokeWidth=1;strokeColor=#4D4D4D;" parent="1" vertex="1">
          <mxGeometry x="279" y="156" width="120" height="20" as="geometry" />
        </mxCell>
        <mxCell id="J8LCAEnsq7eVZJ1q0n39-13" value="&lt;font style=&quot;vertical-align: inherit;&quot;&gt;&lt;font style=&quot;vertical-align: inherit;&quot;&gt;&lt;font style=&quot;vertical-align: inherit;&quot;&gt;&lt;font style=&quot;vertical-align: inherit;&quot;&gt;问卷数据分析&lt;/font&gt;&lt;/font&gt;&lt;/font&gt;&lt;/font&gt;" style="rounded=0;whiteSpace=wrap;html=1;strokeWidth=1;strokeColor=#4D4D4D;" parent="1" vertex="1">
          <mxGeometry x="520" y="127" width="120" height="20" as="geometry" />
        </mxCell>
        <mxCell id="J8LCAEnsq7eVZJ1q0n39-14" value="准备个性化教学资源" style="rounded=0;whiteSpace=wrap;html=1;strokeWidth=1;strokeColor=#4D4D4D;" parent="1" vertex="1">
          <mxGeometry x="520" y="156" width="120" height="20" as="geometry" />
        </mxCell>
        <mxCell id="J8LCAEnsq7eVZJ1q0n39-15" value="" style="rounded=1;whiteSpace=wrap;html=1;fillColor=#ffe6cc;strokeColor=#d79b00;dashed=1;" parent="1" vertex="1">
          <mxGeometry x="239" y="220" width="200" height="140" as="geometry" />
        </mxCell>
        <mxCell id="J8LCAEnsq7eVZJ1q0n39-16" value="获取推荐资源" style="rounded=0;whiteSpace=wrap;html=1;strokeColor=#4D4D4D;" parent="1" vertex="1">
          <mxGeometry x="303" y="260" width="80" height="20" as="geometry" />
        </mxCell>
        <mxCell id="J8LCAEnsq7eVZJ1q0n39-18" value="个性化学习任务" style="rounded=0;whiteSpace=wrap;html=1;strokeColor=#4D4D4D;" parent="1" vertex="1">
          <mxGeometry x="270" y="290" width="146" height="20" as="geometry" />
        </mxCell>
        <mxCell id="J8LCAEnsq7eVZJ1q0n39-19" value="提问在线讨论" style="rounded=0;whiteSpace=wrap;html=1;strokeColor=#4D4D4D;" parent="1" vertex="1">
          <mxGeometry x="260" y="320" width="80" height="20" as="geometry" />
        </mxCell>
        <mxCell id="J8LCAEnsq7eVZJ1q0n39-20" value="完成课前预习" style="rounded=0;whiteSpace=wrap;html=1;strokeColor=#4D4D4D;" parent="1" vertex="1">
          <mxGeometry x="350" y="320" width="80" height="20" as="geometry" />
        </mxCell>
        <mxCell id="J8LCAEnsq7eVZJ1q0n39-22" value="" style="rounded=1;whiteSpace=wrap;html=1;fillColor=#ffe6cc;strokeColor=#d79b00;dashed=1;" parent="1" vertex="1">
          <mxGeometry x="480" y="220" width="200" height="140" as="geometry" />
        </mxCell>
        <mxCell id="J8LCAEnsq7eVZJ1q0n39-23" value="发布学习任务" style="rounded=0;whiteSpace=wrap;html=1;strokeColor=#4D4D4D;" parent="1" vertex="1">
          <mxGeometry x="503.75" y="260" width="80" height="20" as="geometry" />
        </mxCell>
        <mxCell id="J8LCAEnsq7eVZJ1q0n39-24" value="制定个性化学习目标" style="rounded=0;whiteSpace=wrap;html=1;strokeColor=#4D4D4D;" parent="1" vertex="1">
          <mxGeometry x="500" y="320" width="170" height="20" as="geometry" />
        </mxCell>
        <mxCell id="J8LCAEnsq7eVZJ1q0n39-25" value="AI分析学习者行为" style="rounded=0;whiteSpace=wrap;html=1;strokeColor=#4D4D4D;" parent="1" vertex="1">
          <mxGeometry x="507" y="290" width="160" height="20" as="geometry" />
        </mxCell>
        <mxCell id="J8LCAEnsq7eVZJ1q0n39-26" value="个性化推荐" style="rounded=0;whiteSpace=wrap;html=1;strokeColor=#4D4D4D;" parent="1" vertex="1">
          <mxGeometry x="593.75" y="260" width="80" height="20" as="geometry" />
        </mxCell>
        <mxCell id="J8LCAEnsq7eVZJ1q0n39-28" value="&lt;b style=&quot;&quot;&gt;&lt;font style=&quot;font-size: 14px;&quot;&gt;学生自主学习&lt;/font&gt;&lt;/b&gt;" style="rounded=0;whiteSpace=wrap;html=1;fillColor=#ffb74d;strokeColor=#4D4D4D;" parent="1" vertex="1">
          <mxGeometry x="270" y="230" width="140" height="20" as="geometry" />
        </mxCell>
        <mxCell id="J8LCAEnsq7eVZJ1q0n39-29" value="&lt;b style=&quot;&quot;&gt;&lt;font style=&quot;font-size: 14px;&quot;&gt;教师教学设计&lt;/font&gt;&lt;/b&gt;" style="rounded=0;whiteSpace=wrap;html=1;fillColor=#ffb74d;strokeColor=#4D4D4D;" parent="1" vertex="1">
          <mxGeometry x="515" y="230" width="140" height="20" as="geometry" />
        </mxCell>
        <mxCell id="J8LCAEnsq7eVZJ1q0n39-30" value="" style="rounded=1;whiteSpace=wrap;html=1;fillColor=#fff2cc;strokeColor=#d6b656;dashed=1;" parent="1" vertex="1">
          <mxGeometry x="239" y="404" width="200" height="160" as="geometry" />
        </mxCell>
        <mxCell id="J8LCAEnsq7eVZJ1q0n39-31" value="情景化学习" style="rounded=0;whiteSpace=wrap;html=1;strokeColor=#4D4D4D;" parent="1" vertex="1">
          <mxGeometry x="260" y="444" width="80" height="20" as="geometry" />
        </mxCell>
        <mxCell id="J8LCAEnsq7eVZJ1q0n39-32" value="动手操作与实践练习" style="rounded=0;whiteSpace=wrap;html=1;strokeColor=#4D4D4D;" parent="1" vertex="1">
          <mxGeometry x="260" y="474" width="170" height="20" as="geometry" />
        </mxCell>
        <mxCell id="J8LCAEnsq7eVZJ1q0n39-33" value="分组谈论协作" style="rounded=0;whiteSpace=wrap;html=1;strokeColor=#4D4D4D;" parent="1" vertex="1">
          <mxGeometry x="350" y="444" width="80" height="20" as="geometry" />
        </mxCell>
        <mxCell id="J8LCAEnsq7eVZJ1q0n39-34" value="实时互动挑战" style="rounded=0;whiteSpace=wrap;html=1;strokeColor=#4D4D4D;" parent="1" vertex="1">
          <mxGeometry x="259" y="504" width="90" height="20" as="geometry" />
        </mxCell>
        <mxCell id="J8LCAEnsq7eVZJ1q0n39-35" value="快题任务" style="rounded=0;whiteSpace=wrap;html=1;strokeColor=#4D4D4D;" parent="1" vertex="1">
          <mxGeometry x="353" y="504" width="80" height="20" as="geometry" />
        </mxCell>
        <mxCell id="J8LCAEnsq7eVZJ1q0n39-36" value="使用个性化学习助手学习" style="rounded=0;whiteSpace=wrap;html=1;strokeColor=#4D4D4D;" parent="1" vertex="1">
          <mxGeometry x="270" y="534" width="146" height="20" as="geometry" />
        </mxCell>
        <mxCell id="J8LCAEnsq7eVZJ1q0n39-37" value="" style="rounded=1;whiteSpace=wrap;html=1;fillColor=#fff2cc;strokeColor=#d6b656;dashed=1;" parent="1" vertex="1">
          <mxGeometry x="480" y="404" width="200" height="160" as="geometry" />
        </mxCell>
        <mxCell id="J8LCAEnsq7eVZJ1q0n39-38" value="学习互动" style="rounded=0;whiteSpace=wrap;html=1;strokeColor=#4D4D4D;" parent="1" vertex="1">
          <mxGeometry x="500" y="504" width="80" height="20" as="geometry" />
        </mxCell>
        <mxCell id="J8LCAEnsq7eVZJ1q0n39-39" value="教学演示（沉浸式教学）" style="rounded=0;whiteSpace=wrap;html=1;strokeColor=#4D4D4D;" parent="1" vertex="1">
          <mxGeometry x="500.38" y="474" width="159.62" height="20" as="geometry" />
        </mxCell>
        <mxCell id="J8LCAEnsq7eVZJ1q0n39-40" value="案例情景导入" style="rounded=0;whiteSpace=wrap;html=1;strokeColor=#4D4D4D;" parent="1" vertex="1">
          <mxGeometry x="500" y="444" width="160" height="20" as="geometry" />
        </mxCell>
        <mxCell id="J8LCAEnsq7eVZJ1q0n39-41" value="智能问答系统" style="rounded=0;whiteSpace=wrap;html=1;strokeColor=#4D4D4D;" parent="1" vertex="1">
          <mxGeometry x="583.75" y="504" width="80" height="20" as="geometry" />
        </mxCell>
        <mxCell id="J8LCAEnsq7eVZJ1q0n39-42" value="&lt;b style=&quot;&quot;&gt;&lt;font style=&quot;font-size: 14px;&quot;&gt;学生深度学习&lt;/font&gt;&lt;/b&gt;" style="rounded=0;whiteSpace=wrap;html=1;fillColor=#FFF176;strokeColor=#4D4D4D;" parent="1" vertex="1">
          <mxGeometry x="270" y="414" width="140" height="20" as="geometry" />
        </mxCell>
        <mxCell id="J8LCAEnsq7eVZJ1q0n39-43" value="&lt;b style=&quot;&quot;&gt;&lt;font style=&quot;font-size: 14px;&quot;&gt;教师课堂组织&lt;/font&gt;&lt;/b&gt;" style="rounded=0;whiteSpace=wrap;html=1;fillColor=#FFF176;strokeColor=#4D4D4D;" parent="1" vertex="1">
          <mxGeometry x="515" y="414" width="140" height="20" as="geometry" />
        </mxCell>
        <mxCell id="J8LCAEnsq7eVZJ1q0n39-44" value="" style="rounded=1;whiteSpace=wrap;html=1;fillColor=#d5e8d4;strokeColor=#82b366;dashed=1;" parent="1" vertex="1">
          <mxGeometry x="240" y="619" width="200" height="141" as="geometry" />
        </mxCell>
        <mxCell id="J8LCAEnsq7eVZJ1q0n39-45" value="复习总结" style="rounded=0;whiteSpace=wrap;html=1;strokeColor=#4D4D4D;" parent="1" vertex="1">
          <mxGeometry x="250" y="637" width="80" height="20" as="geometry" />
        </mxCell>
        <mxCell id="J8LCAEnsq7eVZJ1q0n39-46" value="完成巩固练习" style="rounded=0;whiteSpace=wrap;html=1;strokeColor=#4D4D4D;" parent="1" vertex="1">
          <mxGeometry x="290" y="697" width="100" height="20" as="geometry" />
        </mxCell>
        <mxCell id="J8LCAEnsq7eVZJ1q0n39-47" value="课后讨论" style="rounded=0;whiteSpace=wrap;html=1;strokeColor=#4D4D4D;" parent="1" vertex="1">
          <mxGeometry x="336" y="637" width="100" height="20" as="geometry" />
        </mxCell>
        <mxCell id="J8LCAEnsq7eVZJ1q0n39-49" value="调整学习路径" style="rounded=0;whiteSpace=wrap;html=1;strokeColor=#4D4D4D;" parent="1" vertex="1">
          <mxGeometry x="250" y="667" width="90" height="20" as="geometry" />
        </mxCell>
        <mxCell id="J8LCAEnsq7eVZJ1q0n39-51" value="" style="rounded=1;whiteSpace=wrap;html=1;fillColor=#d5e8d4;strokeColor=#82b366;dashed=1;" parent="1" vertex="1">
          <mxGeometry x="481" y="619" width="200" height="141" as="geometry" />
        </mxCell>
        <mxCell id="J8LCAEnsq7eVZJ1q0n39-52" value="推送个性化巩固练习" style="rounded=0;whiteSpace=wrap;html=1;strokeColor=#4D4D4D;" parent="1" vertex="1">
          <mxGeometry x="515" y="665" width="139" height="20" as="geometry" />
        </mxCell>
        <mxCell id="J8LCAEnsq7eVZJ1q0n39-55" value="在线答疑解惑" style="rounded=0;whiteSpace=wrap;html=1;strokeColor=#4D4D4D;" parent="1" vertex="1">
          <mxGeometry x="537.07" y="637" width="80" height="20" as="geometry" />
        </mxCell>
        <mxCell id="J8LCAEnsq7eVZJ1q0n39-56" value="&lt;b style=&quot;&quot;&gt;&lt;font style=&quot;font-size: 14px;&quot;&gt;学生泛在学习&lt;/font&gt;&lt;/b&gt;" style="rounded=0;whiteSpace=wrap;html=1;fillColor=#81C784;strokeColor=#4D4D4D;" parent="1" vertex="1">
          <mxGeometry x="271" y="607" width="140" height="20" as="geometry" />
        </mxCell>
        <mxCell id="J8LCAEnsq7eVZJ1q0n39-57" value="&lt;b style=&quot;&quot;&gt;&lt;font style=&quot;font-size: 14px;&quot;&gt;教师分析评价&lt;/font&gt;&lt;/b&gt;" style="rounded=0;whiteSpace=wrap;html=1;fillColor=#81C784;strokeColor=#4D4D4D;" parent="1" vertex="1">
          <mxGeometry x="516" y="607" width="140" height="20" as="geometry" />
        </mxCell>
        <mxCell id="J8LCAEnsq7eVZJ1q0n39-58" value="完成课后检测" style="rounded=0;whiteSpace=wrap;html=1;strokeColor=#4D4D4D;" parent="1" vertex="1">
          <mxGeometry x="346" y="667" width="80" height="20" as="geometry" />
        </mxCell>
        <mxCell id="J8LCAEnsq7eVZJ1q0n39-60" value="学习路径优化" style="rounded=0;whiteSpace=wrap;html=1;strokeColor=#4D4D4D;" parent="1" vertex="1">
          <mxGeometry x="542.2099999999999" y="693" width="89.57" height="20" as="geometry" />
        </mxCell>
        <mxCell id="J8LCAEnsq7eVZJ1q0n39-61" value="导入AI完成多元评价与预警" style="rounded=0;whiteSpace=wrap;html=1;strokeColor=#4D4D4D;" parent="1" vertex="1">
          <mxGeometry x="505.32" y="719" width="155.75" height="20" as="geometry" />
        </mxCell>
        <mxCell id="J8LCAEnsq7eVZJ1q0n39-62" value="" style="shape=singleArrow;direction=south;whiteSpace=wrap;html=1;fillColor=#1ba1e2;fontColor=#ffffff;strokeColor=#006EAF;arrowWidth=0.36666259765623294;arrowSize=0.5444432576497396;" parent="1" vertex="1">
          <mxGeometry x="329" y="184" width="20" height="30" as="geometry" />
        </mxCell>
        <mxCell id="J8LCAEnsq7eVZJ1q0n39-63" value="" style="shape=singleArrow;direction=south;whiteSpace=wrap;html=1;fillColor=#1ba1e2;fontColor=#ffffff;strokeColor=#006EAF;arrowWidth=0.36666259765623294;arrowSize=0.5444432576497396;" parent="1" vertex="1">
          <mxGeometry x="572.13" y="184" width="20" height="30" as="geometry" />
        </mxCell>
        <mxCell id="J8LCAEnsq7eVZJ1q0n39-64" value="" style="shape=singleArrow;direction=south;whiteSpace=wrap;html=1;fillColor=#1ba1e2;fontColor=#ffffff;strokeColor=#006EAF;arrowWidth=0.36666259765623294;arrowSize=0.5444432576497396;" parent="1" vertex="1">
          <mxGeometry x="326.87" y="369" width="20" height="30" as="geometry" />
        </mxCell>
        <mxCell id="J8LCAEnsq7eVZJ1q0n39-65" value="" style="shape=singleArrow;direction=south;whiteSpace=wrap;html=1;fillColor=#1ba1e2;fontColor=#ffffff;strokeColor=#006EAF;arrowWidth=0.36666259765623294;arrowSize=0.5444432576497396;" parent="1" vertex="1">
          <mxGeometry x="570" y="369" width="20" height="30" as="geometry" />
        </mxCell>
        <mxCell id="J8LCAEnsq7eVZJ1q0n39-66" value="" style="shape=singleArrow;direction=south;whiteSpace=wrap;html=1;fillColor=#1ba1e2;fontColor=#ffffff;strokeColor=#006EAF;arrowWidth=0.36666259765623294;arrowSize=0.5444432576497396;" parent="1" vertex="1">
          <mxGeometry x="326.87" y="568" width="20" height="30" as="geometry" />
        </mxCell>
        <mxCell id="J8LCAEnsq7eVZJ1q0n39-67" value="" style="shape=singleArrow;direction=south;whiteSpace=wrap;html=1;fillColor=#1ba1e2;fontColor=#ffffff;strokeColor=#006EAF;arrowWidth=0.36666259765623294;arrowSize=0.5444432576497396;" parent="1" vertex="1">
          <mxGeometry x="570" y="568" width="20" height="30" as="geometry" />
        </mxCell>
        <mxCell id="J8LCAEnsq7eVZJ1q0n39-68" value="" style="shape=doubleArrow;whiteSpace=wrap;html=1;arrowWidth=0.36666463216145645;arrowSize=0.25555419921874434;fillColor=#1ba1e2;fontColor=#ffffff;strokeColor=#006EAF;" parent="1" vertex="1">
          <mxGeometry x="445" y="290" width="30" height="20" as="geometry" />
        </mxCell>
        <mxCell id="J8LCAEnsq7eVZJ1q0n39-69" value="" style="shape=doubleArrow;whiteSpace=wrap;html=1;arrowWidth=0.36666463216145645;arrowSize=0.25555419921874434;fillColor=#1ba1e2;fontColor=#ffffff;strokeColor=#006EAF;" parent="1" vertex="1">
          <mxGeometry x="445" y="464" width="30" height="20" as="geometry" />
        </mxCell>
        <mxCell id="J8LCAEnsq7eVZJ1q0n39-70" value="" style="shape=doubleArrow;whiteSpace=wrap;html=1;arrowWidth=0.36666463216145645;arrowSize=0.25555419921874434;fillColor=#1ba1e2;fontColor=#ffffff;strokeColor=#006EAF;" parent="1" vertex="1">
          <mxGeometry x="445" y="667" width="30" height="20" as="geometry" />
        </mxCell>
        <mxCell id="J8LCAEnsq7eVZJ1q0n39-75" value="" style="shape=doubleArrow;whiteSpace=wrap;html=1;arrowWidth=0.36666463216145645;arrowSize=0.25555419921874434;fillColor=#1ba1e2;fontColor=#ffffff;strokeColor=#006EAF;" parent="1" vertex="1">
          <mxGeometry x="445" y="140" width="30" height="20" as="geometry" />
        </mxCell>
        <mxCell id="J8LCAEnsq7eVZJ1q0n39-76" value="" style="rounded=1;whiteSpace=wrap;html=1;fillColor=#b1ddf0;strokeColor=#333333;dashed=1;" parent="1" vertex="1">
          <mxGeometry x="218" y="821" width="470" height="110" as="geometry" />
        </mxCell>
        <mxCell id="J8LCAEnsq7eVZJ1q0n39-77" value="AI学情分析" style="rounded=0;whiteSpace=wrap;html=1;strokeColor=#4D4D4D;" parent="1" vertex="1">
          <mxGeometry x="250" y="861" width="153.13" height="20" as="geometry" />
        </mxCell>
        <mxCell id="J8LCAEnsq7eVZJ1q0n39-78" value="实时协作与评分" style="rounded=0;whiteSpace=wrap;html=1;strokeColor=#4D4D4D;" parent="1" vertex="1">
          <mxGeometry x="250" y="891" width="153.13" height="20" as="geometry" />
        </mxCell>
        <mxCell id="J8LCAEnsq7eVZJ1q0n39-79" value="习性话学习支持" style="rounded=0;whiteSpace=wrap;html=1;strokeColor=#4D4D4D;" parent="1" vertex="1">
          <mxGeometry x="495" y="861" width="155" height="20" as="geometry" />
        </mxCell>
        <mxCell id="J8LCAEnsq7eVZJ1q0n39-81" value="动态调整教学内容" style="rounded=0;whiteSpace=wrap;html=1;strokeColor=#4D4D4D;" parent="1" vertex="1">
          <mxGeometry x="503.75" y="534" width="160" height="20" as="geometry" />
        </mxCell>
        <mxCell id="J8LCAEnsq7eVZJ1q0n39-82" value="优化学习路径与教学策略" style="rounded=0;whiteSpace=wrap;html=1;strokeColor=#4D4D4D;" parent="1" vertex="1">
          <mxGeometry x="495.93" y="891" width="153.13" height="20" as="geometry" />
        </mxCell>
        <mxCell id="J8LCAEnsq7eVZJ1q0n39-83" value="&lt;span style=&quot;font-size: 14px;&quot;&gt;&lt;b&gt;智慧教学平台&lt;/b&gt;&lt;/span&gt;" style="rounded=0;whiteSpace=wrap;html=1;fillColor=#36b0ec;strokeColor=#4D4D4D;" parent="1" vertex="1">
          <mxGeometry x="353" y="828" width="170" height="26" as="geometry" />
        </mxCell>
        <mxCell id="J8LCAEnsq7eVZJ1q0n39-85" value="" style="shape=doubleArrow;whiteSpace=wrap;html=1;arrowWidth=0.36666463216145645;arrowSize=0.25555419921874434;fillColor=#1ba1e2;fontColor=#ffffff;strokeColor=#006EAF;direction=south;" parent="1" vertex="1">
          <mxGeometry x="283" y="787" width="20" height="30" as="geometry" />
        </mxCell>
        <mxCell id="J8LCAEnsq7eVZJ1q0n39-86" value="" style="shape=doubleArrow;whiteSpace=wrap;html=1;arrowWidth=0.36666463216145645;arrowSize=0.25555419921874434;fillColor=#1ba1e2;fontColor=#ffffff;strokeColor=#006EAF;direction=south;" parent="1" vertex="1">
          <mxGeometry x="440" y="787" width="20" height="30" as="geometry" />
        </mxCell>
        <mxCell id="J8LCAEnsq7eVZJ1q0n39-87" value="" style="shape=doubleArrow;whiteSpace=wrap;html=1;arrowWidth=0.36666463216145645;arrowSize=0.25555419921874434;fillColor=#1ba1e2;fontColor=#ffffff;strokeColor=#006EAF;direction=south;" parent="1" vertex="1">
          <mxGeometry x="597.0699999999999" y="787" width="20" height="30" as="geometry" />
        </mxCell>
      </root>
    </mxGraphModel>
  </diagram>
</mxfile>
